<svg xmlns="http://www.w3.org/2000/svg" version="1.1" xmlns:xlink="http://www.w3.org/1999/xlink" width="1000" height="1000"><g clip-path="url(#SvgjsClipPath1103)"><rect width="1000" height="1000" fill="#000000"></rect><g transform="matrix(2.6666666666666665,0,0,2.6666666666666665,100,100)"><svg xmlns="http://www.w3.org/2000/svg" version="1.1" xmlns:xlink="http://www.w3.org/1999/xlink" width="300" height="300"><svg width="300" height="300" viewBox="0 0 300 300" fill="none" xmlns="http://www.w3.org/2000/svg">
<path fill-rule="evenodd" clip-rule="evenodd" d="M167.626 87L131.353 49.7181C109.082 27.4273 72.9742 27.4273 50.7032 49.7181C28.4323 72.0089 28.4323 108.149 50.7032 130.44L64.9683 144.718L80.755 128.758L66.5692 114.56C53.0608 101.04 53.0609 79.1187 66.5692 65.5983C80.0776 52.0778 101.979 52.0778 115.487 65.5983L152.102 103.223L167.626 87Z" fill="#F2F2F2"></path>
<path fill-rule="evenodd" clip-rule="evenodd" d="M133.748 212.688L169.169 249.368C191.636 272.624 228.062 272.624 250.529 249.368C272.996 226.113 268.072 189.206 245.606 165.95L236.688 156.688L220.23 172.815L229.6 182.518C243.227 196.623 248.15 218.695 234.523 232.801C220.896 246.906 198.802 246.906 185.175 232.801L150.232 196.587L133.748 212.688Z" fill="#F2F2F2"></path>
<path fill-rule="evenodd" clip-rule="evenodd" d="M235.764 145.429L249.588 131.807C272.033 109.691 272.283 73.5832 250.147 51.1585C228.011 28.7338 191.871 28.4836 169.426 50.5997L155.05 64.7656L171.165 80.4012L185.196 66.5753C198.81 53.1608 220.73 53.3126 234.157 66.9142C247.584 80.5158 247.432 102.417 233.818 115.831L219.815 129.629L235.764 145.429Z" fill="#F2F2F2"></path>
<path fill-rule="evenodd" clip-rule="evenodd" d="M65.2163 155.303L51.3916 168.925C28.9472 191.041 28.6972 227.149 50.8333 249.573C72.9694 271.998 109.109 272.248 131.553 250.132L145.93 235.966L129.815 220.331L115.784 234.157C102.17 247.571 80.2495 247.419 66.8229 233.818C53.3963 220.216 53.5479 198.315 67.1615 184.901L81.1646 171.103L65.2163 155.303Z" fill="#F2F2F2"></path>
<path fill-rule="evenodd" clip-rule="evenodd" d="M127.705 92.8489L86.3262 134.228L69.9094 150.645L86.3262 167.062L127.705 208.441L144.122 192.024L102.743 150.645L144.122 109.266L127.705 92.8489Z" fill="#F2F2F2"></path>
<path fill-rule="evenodd" clip-rule="evenodd" d="M173.988 92.8489L215.368 134.228L231.784 150.645L215.368 167.062L173.988 208.441L157.572 192.024L198.951 150.645L157.572 109.266L173.988 92.8489Z" fill="#F2F2F2"></path>
</svg></svg></g></g><defs><clipPath id="SvgjsClipPath1103"><rect width="1000" height="1000" x="0" y="0" rx="350" ry="350"></rect></clipPath></defs></svg>